<svg width="72" height="72" viewBox="0 0 72 72" fill="none" xmlns="http://www.w3.org/2000/svg">
<path d="M62.0947 54.5996C62.0947 56.2565 60.7516 57.5996 59.0947 57.5996H15.2998C12.8161 57.5996 10.7998 55.401 10.7998 52.6914V21.1484H62.0947V54.5996ZM40.2539 24.2998C36.0582 24.3 32.6455 27.6037 32.6455 31.6641C32.6456 33.0073 33.0082 34.2498 33.7275 35.3721H33.709C30.8259 35.3721 27.695 34.8242 26.2373 32.0029C26.1456 31.8267 25.9721 31.7036 25.7715 31.6719C25.5722 31.639 25.3653 31.7042 25.2217 31.8438C23.3396 33.6654 22.5 36.07 22.5 39.6406C22.5 42.6651 25.0627 51.2998 36.4502 51.2998C49.0395 51.2997 50.3993 44.8631 50.3994 42.0957C50.3994 39.0113 49.4257 36.3603 47.5742 34.3828C49.4391 32.792 50.3881 31.468 50.3994 30.4434C50.4068 29.7022 50.3214 28.663 49.4932 28.1943C48.8963 27.8588 48.1186 27.9257 47.0723 28.4092C45.8029 25.9259 43.1469 24.2998 40.2539 24.2998ZM29.5625 40.0352C29.8695 39.88 30.2547 39.9957 30.417 40.2969C32.5879 44.3424 35.6844 46.3935 39.6201 46.3936C40.7013 46.3936 41.7445 46.0113 42.5557 45.3174C42.8157 45.0937 43.2149 45.1167 43.4502 45.3711C43.6817 45.6246 43.6571 46.0126 43.3945 46.2373C42.3518 47.13 41.0107 47.6211 39.6201 47.6211C35.1743 47.6211 31.6992 45.3478 29.293 40.8633C29.1308 40.5625 29.2517 40.1916 29.5625 40.0352ZM41.5225 28.5957C42.222 28.5957 42.7908 29.146 42.791 29.8223C42.791 30.4988 42.2221 31.0498 41.5225 31.0498C40.8227 31.0498 40.2539 30.4988 40.2539 29.8223C40.2542 29.1459 40.8229 28.5957 41.5225 28.5957ZM18.2246 9.61328C18.2248 12.3227 21.1403 14.3994 23.624 14.3994C26.1076 14.3993 29.0231 12.384 29.0234 9.6748V7.71094L45.2217 7.64941V9.6748C45.2219 13.0492 48.5964 14.3994 50.6211 14.3994C52.6458 14.3994 56.0202 13.0492 56.0205 9.6748V7.64941H57.5957C60.0794 7.6496 62.0947 9.84916 62.0947 12.5586V18.4482H10.7998V12.5586C10.7998 9.84904 12.816 7.64941 15.2998 7.64941H18.2246V9.61328ZM23.624 3.59961C25.1177 3.59978 26.4022 4.91548 26.4023 6.54492L26.3232 8.99902C26.3232 10.6286 25.1177 11.6991 23.624 11.6992C22.1302 11.6992 20.9238 10.6287 20.9238 8.99902V6.54492C20.9239 4.91538 22.1302 3.59961 23.624 3.59961ZM50.6211 3.59961C52.1149 3.59962 53.3213 4.67016 53.3213 6.2998V8.99902C53.3213 10.6287 52.1149 11.6992 50.6211 11.6992C49.1274 11.6992 47.9209 10.6287 47.9209 8.99902V6.54492C47.921 4.91538 49.1274 3.59961 50.6211 3.59961Z" fill="#E9E9F3" fill-opacity="1"/>
</svg>
