<svg width="38" height="38" viewBox="0 0 38 38" fill="none" xmlns="http://www.w3.org/2000/svg">
<path d="M37.4453 12.7071C38.1849 11.9734 38.1849 10.7839 37.4453 10.0503C36.7057 9.31658 35.5066 9.31658 34.767 10.0503L19.1441 25.5478L12.0023 18.4632C11.2627 17.7296 10.0635 17.7296 9.32393 18.4632C8.58433 19.1969 8.58433 20.3864 9.32393 21.1201L17.8049 29.5331C18.1601 29.8854 18.6418 30.0833 19.1441 30.0833C19.6464 30.0833 20.1281 29.8854 20.4833 29.5331L37.4453 12.7071Z" fill="#3BCF6C"/>
<path d="M18.7655 21.7474L27.8789 12.7071C28.6185 11.9734 28.6185 10.7839 27.8789 10.0503C27.1393 9.31658 25.9401 9.31658 25.2005 10.0503L16.0871 19.0905L18.7655 21.7474Z" fill="#3BCF6C"/>
<path d="M10.3749 25.5478L12.2243 27.475L13.1256 28.1329L11.714 29.5331C11.3589 29.8854 10.8772 30.0833 10.3749 30.0833C9.87259 30.0833 9.39088 29.8854 9.03571 29.5331L0.554701 21.1201C-0.1849 20.3864 -0.1849 19.1969 0.554701 18.4632C1.2943 17.7296 2.49343 17.7296 3.23304 18.4632L10.3749 25.5478Z" fill="#3BCF6C"/>
</svg>
