<svg width="72" height="72" viewBox="0 0 72 72" fill="none" xmlns="http://www.w3.org/2000/svg">
<path fill-rule="evenodd" clip-rule="evenodd" d="M65.5846 29.003C64.9196 29.8622 63.9942 30.491 62.9423 30.7986C61.9142 31.1156 61.0158 31.7474 60.3779 32.602C59.7401 33.4567 59.3961 34.4895 59.3961 35.55C59.3961 36.6105 59.7401 37.6433 60.3779 38.498C61.0158 39.3526 61.9142 39.9844 62.9423 40.3014C63.9942 40.609 64.9196 41.2378 65.5846 42.097C66.2496 42.9562 66.6199 44.0013 66.6419 45.0813V52.621C66.6343 53.9392 66.099 55.2013 65.1521 56.1334C64.2051 57.0656 62.923 57.5925 61.5839 57.6H9.55806C8.21892 57.5925 6.93679 57.0656 5.98986 56.1334C5.04293 55.2013 4.50759 53.9392 4.5 52.621V45.0813C4.52202 44.0013 4.8923 42.9562 5.55733 42.097C6.22236 41.2378 7.1477 40.609 8.19961 40.3014C9.2277 39.9844 10.1261 39.3526 10.764 38.498C11.4019 37.6433 11.7458 36.6105 11.7458 35.55C11.7458 34.4895 11.4019 33.4567 10.764 32.602C10.1261 31.7474 9.2277 31.1156 8.19961 30.7986C7.1477 30.491 6.22236 29.8622 5.55733 29.003C4.8923 28.1438 4.52202 27.0987 4.5 26.0187V18.479C4.50759 17.1608 5.04293 15.8987 5.98986 14.9666C6.93679 14.0344 8.21892 13.5075 9.55806 13.5H61.5839C62.923 13.5075 64.2051 14.0344 65.1521 14.9666C66.099 15.8987 66.6343 17.1608 66.6419 18.479V26.0187C66.6199 27.0987 66.2496 28.1438 65.5846 29.003ZM35.571 44.4033C40.5381 44.4033 44.5648 40.4395 44.5648 35.55C44.5648 30.6605 40.5381 26.6967 35.571 26.6967C30.6038 26.6967 26.5772 30.6605 26.5772 35.55C26.5772 40.4395 30.6038 44.4033 35.571 44.4033Z" fill="#E9E9F3" fill-opacity="1"/>
</svg>
